<?xml version="1.0" encoding="UTF-8" standalone="no"?><!DOCTYPE svg PUBLIC "-//W3C//DTD SVG 1.1//EN" "http://www.w3.org/Graphics/SVG/1.1/DTD/svg11.dtd"><svg width="100%" height="100%" viewBox="0 0 86 86" version="1.1" xmlns="http://www.w3.org/2000/svg" xmlns:xlink="http://www.w3.org/1999/xlink" xml:space="preserve" xmlns:serif="http://www.serif.com/" style="fill-rule:evenodd;clip-rule:evenodd;stroke-linejoin:round;stroke-miterlimit:2;"><path d="M76.017,62.144c0.128,0 0.256,0 0.358,0.026c0.794,-1.382 1.51,-2.841 2.176,-4.377c0.025,-0.025 0.025,-0.051 0.051,-0.077c0.972,-2.329 1.74,-4.735 2.227,-7.243c0.384,-1.945 0.64,-3.916 0.716,-5.964l-11.722,0c-0.205,5.964 -1.997,11.825 -5.298,17.61l11.492,0l0,0.025Zm-2.048,3.737l-11.799,0c-3.583,5.196 -8.421,10.315 -14.461,15.383c0.947,-0.128 1.894,-0.282 2.815,-0.461c2.534,-0.512 4.966,-1.254 7.32,-2.278c2.381,-1.024 4.608,-2.227 6.681,-3.609c2.073,-1.382 3.967,-2.943 5.733,-4.709c1.356,-1.357 2.611,-2.79 3.737,-4.326l-0.026,0Zm-36.319,15.383c-6.04,-5.068 -10.878,-10.187 -14.461,-15.383l-11.799,0c1.126,1.536 2.38,2.969 3.737,4.326c1.766,1.766 3.66,3.327 5.733,4.709c2.047,1.382 4.274,2.585 6.68,3.609c0.026,0.026 0.051,0.026 0.077,0.051c2.329,0.973 4.735,1.741 7.243,2.227c0.922,0.179 1.869,0.333 2.816,0.461l-0.026,0Zm-28.717,-19.12l11.876,0c-3.302,-5.784 -5.094,-11.671 -5.299,-17.609l-11.722,0c0.102,2.048 0.333,4.018 0.717,5.964c0.512,2.534 1.254,4.965 2.278,7.32c0.64,1.51 1.356,2.943 2.15,4.325Zm-5.145,-21.346l11.799,0c0.435,-5.835 2.381,-11.697 5.836,-17.609l-12.49,0c-0.794,1.382 -1.51,2.815 -2.15,4.325c-0.026,0.026 -0.026,0.052 -0.052,0.077c-0.972,2.329 -1.74,4.735 -2.226,7.244c-0.384,1.945 -0.64,3.916 -0.717,5.963Zm7.576,-21.346l12.465,0c3.558,-5.119 8.241,-10.263 14.077,-15.434c-1.049,0.128 -2.073,0.282 -3.071,0.487c-2.534,0.512 -4.966,1.254 -7.321,2.278c-2.38,1.023 -4.607,2.226 -6.68,3.609c-2.073,1.382 -3.967,2.943 -5.733,4.709c-1.357,1.357 -2.611,2.79 -3.737,4.326l0,0.025Zm36.063,-15.434c5.862,5.171 10.545,10.315 14.077,15.434l12.465,0c-1.126,-1.536 -2.38,-2.969 -3.737,-4.325c-1.766,-1.766 -3.66,-3.328 -5.733,-4.71c-2.047,-1.382 -4.274,-2.585 -6.68,-3.609c-0.026,-0.025 -0.051,-0.025 -0.077,-0.051c-2.329,-0.973 -4.735,-1.74 -7.243,-2.227c-1.024,-0.204 -2.048,-0.358 -3.072,-0.486l0,-0.026Zm28.974,19.171l-12.491,0c3.456,5.912 5.401,11.774 5.836,17.609l11.799,0c-0.102,-2.047 -0.332,-4.018 -0.716,-5.963c-0.512,-2.534 -1.255,-4.966 -2.278,-7.321c-0.64,-1.51 -1.357,-2.943 -2.15,-4.325Zm-42.309,-22.344c2.765,-0.563 5.631,-0.845 8.575,-0.845c2.943,0 5.784,0.282 8.574,0.845c2.739,0.537 5.375,1.356 7.96,2.457c0.026,0 0.077,0.025 0.102,0.051c2.56,1.101 4.991,2.431 7.269,3.942c2.278,1.51 4.377,3.25 6.297,5.17c1.945,1.919 3.66,4.018 5.17,6.296c1.535,2.278 2.841,4.71 3.941,7.269c1.127,2.611 1.946,5.298 2.509,8.062c0.563,2.765 0.844,5.631 0.844,8.575c0,2.943 -0.281,5.784 -0.844,8.574c-0.538,2.739 -1.357,5.375 -2.457,7.96c0,0.026 -0.026,0.077 -0.052,0.102c-1.1,2.585 -2.431,4.991 -3.941,7.269c-1.51,2.278 -3.251,4.377 -5.17,6.297c-1.92,1.945 -4.019,3.66 -6.297,5.17c-2.278,1.535 -4.709,2.841 -7.269,3.941c-2.61,1.127 -5.298,1.946 -8.062,2.509c-2.764,0.563 -5.631,0.844 -8.574,0.844c-2.944,0 -5.785,-0.281 -8.575,-0.844c-2.738,-0.538 -5.375,-1.357 -7.96,-2.457c-0.025,0 -0.076,-0.026 -0.102,-0.052c-2.559,-1.1 -4.991,-2.431 -7.269,-3.941c-2.278,-1.51 -4.377,-3.251 -6.296,-5.17c-1.946,-1.92 -3.66,-4.019 -5.17,-6.297c-1.536,-2.278 -2.841,-4.709 -3.942,-7.269c-1.126,-2.61 -1.945,-5.298 -2.508,-8.062c-0.563,-2.764 -0.845,-5.631 -0.845,-8.574c0,-2.944 0.282,-5.785 0.845,-8.575c0.537,-2.738 1.356,-5.375 2.457,-7.96c0,-0.025 0.025,-0.076 0.051,-0.102c1.101,-2.585 2.431,-4.991 3.942,-7.269c1.51,-2.278 3.25,-4.377 5.17,-6.296c1.919,-1.946 4.018,-3.66 6.296,-5.17c2.278,-1.536 4.71,-2.841 7.269,-3.942c2.611,-1.126 5.298,-1.945 8.062,-2.508Zm10.443,5.605l0,13.002l12.388,0c-3.251,-4.3 -7.371,-8.625 -12.388,-13.002Zm0,16.739l0,17.609l21.474,0c-0.486,-5.784 -2.636,-11.645 -6.475,-17.609l-14.999,0Zm0,21.346l0,17.609l15.639,0c3.711,-5.835 5.682,-11.696 5.912,-17.609l-21.551,0Zm0,21.346l0,13.156c5.298,-4.351 9.649,-8.753 13.028,-13.156l-13.028,0Zm-3.737,13.156l0,-13.156l-13.028,0c3.353,4.403 7.705,8.805 13.028,13.156Zm0,-16.893l0,-17.609l-21.551,0c0.231,5.913 2.227,11.774 5.913,17.609l15.638,0Zm0,-21.346l0,-17.609l-14.998,0c-3.84,5.964 -5.99,11.825 -6.476,17.609l21.474,0Zm0,-21.346l0,-13.002c-5.016,4.377 -9.137,8.702 -12.388,13.002l12.388,0Z" style="fill-rule:nonzero;"/></svg>