<svg width="22" height="18" viewBox="0 0 22 18" fill="none" xmlns="http://www.w3.org/2000/svg">
<path d="M20.75 0.28125H1.25C0.835156 0.28125 0.5 0.616406 0.5 1.03125V12.6562C0.5 13.0711 0.835156 13.4062 1.25 13.4062H10.1562V16.0312H6.125C5.91875 16.0312 5.75 16.2 5.75 16.4062V17.5312C5.75 17.6344 5.83437 17.7188 5.9375 17.7188H16.0625C16.1656 17.7188 16.25 17.6344 16.25 17.5312V16.4062C16.25 16.2 16.0813 16.0312 15.875 16.0312H11.8438V13.4062H20.75C21.1648 13.4062 21.5 13.0711 21.5 12.6562V1.03125C21.5 0.616406 21.1648 0.28125 20.75 0.28125ZM19.8125 11.7188H2.1875V1.96875H19.8125V11.7188Z" fill="#0593FB"/>
</svg>
