<svg width="20" height="20" fill="none" xmlns="http://www.w3.org/2000/svg"><path d="M10.094 13.773c0 .104.08.188.176.188h4.335c.097 0 .176-.084.176-.188v-1.125c0-.103-.08-.187-.176-.187H10.27c-.097 0-.176.084-.176.187v1.125zm-4.568.143l4.5-3.773a.189.189 0 000-.288l-4.5-3.771a.186.186 0 00-.307.143v1.47c0 .055.023.107.068.142L7.86 10l-2.573 2.16a.19.19 0 00-.068.144v1.47c0 .159.185.246.307.142zM18.625.625H1.375a.75.75 0 00-.75.75v17.25c0 .415.335.75.75.75h17.25a.75.75 0 00.75-.75V1.375a.75.75 0 00-.75-.75zm-.938 17.063H2.313V2.313h15.376v15.374z" fill="#0593fb"/></svg>