<svg width="42" height="42" fill="none" xmlns="http://www.w3.org/2000/svg"><path d="M20.981.575C9.39.571 0 9.955 0 21.538c0 9.16 5.873 16.945 14.053 19.804 1.102.277.933-.506.933-1.04v-3.633c-6.361.745-6.619-3.464-7.045-4.167-.863-1.472-2.902-1.847-2.293-2.55 1.449-.746 2.925.187 4.636 2.714 1.238 1.833 3.652 1.523 4.875 1.219a5.912 5.912 0 011.627-2.85c-6.59-1.182-9.338-5.204-9.338-9.985 0-2.32.764-4.453 2.264-6.173-.956-2.836.09-5.264.23-5.625 2.724-.244 5.555 1.95 5.775 2.123 1.547-.417 3.314-.637 5.292-.637 1.988 0 3.76.23 5.32.651.53-.403 3.155-2.287 5.687-2.058.136.361 1.157 2.733.257 5.532 1.52 1.725 2.293 3.876 2.293 6.201 0 4.79-2.766 8.817-9.375 9.98a5.979 5.979 0 011.786 4.266v5.273c.037.422 0 .84.703.84 8.301-2.8 14.278-10.642 14.278-19.88C41.958 9.954 32.564.574 20.98.574z" fill="#171F3F"/></svg>