<svg viewBox="0 0 86 86" xmlns="http://www.w3.org/2000/svg" fill-rule="evenodd" clip-rule="evenodd" stroke-linejoin="round" stroke-miterlimit="2"><path d="M76.017 62.144c.128 0 .256 0 .358.026a43.508 43.508 0 002.176-4.377c.025-.025.025-.051.051-.077.972-2.329 1.74-4.735 2.227-7.243a37.87 37.87 0 00.716-5.964H69.823c-.205 5.964-1.997 11.825-5.298 17.61h11.492v.025zm-2.048 3.737H62.17c-3.583 5.196-8.421 10.315-14.461 15.383a49.746 49.746 0 002.815-.461 36.222 36.222 0 007.32-2.278 41.742 41.742 0 006.681-3.609 37.414 37.414 0 005.733-4.709 37.48 37.48 0 003.737-4.326h-.026zM37.65 81.264c-6.04-5.068-10.878-10.187-14.461-15.383H11.39a37.383 37.383 0 003.737 4.326 37.414 37.414 0 005.733 4.709 39.653 39.653 0 006.68 3.609c.026.026.051.026.077.051 2.329.973 4.735 1.741 7.243 2.227a49.93 49.93 0 002.816.461h-.026zM8.933 62.144h11.876c-3.302-5.784-5.094-11.671-5.299-17.609H3.788a41.22 41.22 0 00.717 5.964 36.242 36.242 0 002.278 7.32 39.936 39.936 0 002.15 4.325zM3.788 40.798h11.799c.435-5.835 2.381-11.697 5.836-17.609H8.933a39.936 39.936 0 00-2.15 4.325c-.026.026-.026.052-.052.077-.972 2.329-1.74 4.735-2.226 7.244a37.99 37.99 0 00-.717 5.963zm7.576-21.346h12.465c3.558-5.119 8.241-10.263 14.077-15.434a38.361 38.361 0 00-3.071.487 36.251 36.251 0 00-7.321 2.278 41.616 41.616 0 00-6.68 3.609 37.414 37.414 0 00-5.733 4.709 37.383 37.383 0 00-3.737 4.326v.025zM47.427 4.018c5.862 5.171 10.545 10.315 14.077 15.434h12.465a37.29 37.29 0 00-3.737-4.325 37.42 37.42 0 00-5.733-4.71 39.653 39.653 0 00-6.68-3.609c-.026-.025-.051-.025-.077-.051-2.329-.973-4.735-1.74-7.243-2.227a42.968 42.968 0 00-3.072-.486v-.026zm28.974 19.171H63.91c3.456 5.912 5.401 11.774 5.836 17.609h11.799a41.207 41.207 0 00-.716-5.963 36.315 36.315 0 00-2.278-7.321 40.12 40.12 0 00-2.15-4.325zM34.092.845A42.932 42.932 0 0142.667 0c2.943 0 5.784.282 8.574.845a39.698 39.698 0 017.96 2.457c.026 0 .077.025.102.051a46.152 46.152 0 017.269 3.942 40.773 40.773 0 016.297 5.17 39.33 39.33 0 015.17 6.296 44.233 44.233 0 013.941 7.269 40.801 40.801 0 012.509 8.062c.563 2.765.844 5.631.844 8.575 0 2.943-.281 5.784-.844 8.574a39.827 39.827 0 01-2.457 7.96.189.189 0 01-.052.102 45.065 45.065 0 01-3.941 7.269 40.83 40.83 0 01-5.17 6.297 39.382 39.382 0 01-6.297 5.17 44.193 44.193 0 01-7.269 3.941 40.78 40.78 0 01-8.062 2.509 42.922 42.922 0 01-8.574.844c-2.944 0-5.785-.281-8.575-.844a39.848 39.848 0 01-7.96-2.457.195.195 0 01-.102-.052 46.191 46.191 0 01-7.269-3.941 40.775 40.775 0 01-6.296-5.17 39.328 39.328 0 01-5.17-6.297 44.198 44.198 0 01-3.942-7.269 40.844 40.844 0 01-2.508-8.062A42.922 42.922 0 010 42.667c0-2.944.282-5.785.845-8.575a39.718 39.718 0 012.457-7.96c0-.025.025-.076.051-.102a45.07 45.07 0 013.942-7.269 40.718 40.718 0 015.17-6.296 39.277 39.277 0 016.296-5.17 44.238 44.238 0 017.269-3.942A40.865 40.865 0 0134.092.845zM44.535 6.45v13.002h12.388c-3.251-4.3-7.371-8.625-12.388-13.002zm0 16.739v17.609h21.474c-.486-5.784-2.636-11.645-6.475-17.609H44.535zm0 21.346v17.609h15.639c3.711-5.835 5.682-11.696 5.912-17.609H44.535zm0 21.346v13.156c5.298-4.351 9.649-8.753 13.028-13.156H44.535zm-3.737 13.156V65.881H27.77c3.353 4.403 7.705 8.805 13.028 13.156zm0-16.893V44.535H19.247c.231 5.913 2.227 11.774 5.913 17.609h15.638zm0-21.346V23.189H25.8c-3.84 5.964-5.99 11.825-6.476 17.609h21.474zm0-21.346V6.45c-5.016 4.377-9.137 8.702-12.388 13.002h12.388z" fill-rule="nonzero"/></svg>